<svg version="1.1" xmlns="http://www.w3.org/2000/svg" viewBox="0 0 906.6490668170113 681.1913109886555" width="906.6490668170113" height="681.1913109886555" filter="invert(93%) hue-rotate(180deg)">
  <!-- svg-source:excalidraw -->
  
  <defs>
    <style class="style-fonts">
      @font-face {
        font-family: "Virgil";
        src: url("https://excalidraw.com/Virgil.woff2");
      }
      @font-face {
        font-family: "Cascadia";
        src: url("https://excalidraw.com/Cascadia.woff2");
      }
    </style>
    
  </defs>
  <rect x="0" y="0" width="906.6490668170113" height="681.1913109886555" fill="#ffffff"></rect><g stroke-linecap="round" transform="translate(503.86348587282646 70.73646540784955) rotate(0 63.701002700423146 61.41262357115576)"><path d="M30.71 0 M30.71 0 C53.39 0.17, 79.29 -2.4, 96.7 0 M30.71 0 C45.29 0.56, 59.58 0.31, 96.7 0 M96.7 0 C117.31 1.01, 126.54 9.22, 127.4 30.71 M96.7 0 C118.35 -0.93, 127.39 9.22, 127.4 30.71 M127.4 30.71 C129.24 53.37, 126.7 77.69, 127.4 92.12 M127.4 30.71 C127.08 43.03, 127.17 56.34, 127.4 92.12 M127.4 92.12 C126.92 110.89, 115.22 122.15, 96.7 122.83 M127.4 92.12 C128.31 110.43, 116.19 124.95, 96.7 122.83 M96.7 122.83 C74.32 121.48, 52.42 123.86, 30.71 122.83 M96.7 122.83 C74.46 123.04, 53.03 122.44, 30.71 122.83 M30.71 122.83 C9.71 122.49, 0.97 113.08, 0 92.12 M30.71 122.83 C11.73 120.83, -1.52 114.04, 0 92.12 M0 92.12 C-2.01 79.15, -1.93 65.29, 0 30.71 M0 92.12 C-0.4 74.83, 0.8 58.95, 0 30.71 M0 30.71 C0.27 11.1, 8.88 1.37, 30.71 0 M0 30.71 C-1.13 11.92, 12.45 -0.04, 30.71 0" stroke="#1e1e1e" stroke-width="1" fill="none"></path></g><g transform="translate(514.5803806020582 112.14908897900531) rotate(0 52.98410797119135 20)"><text x="52.984107971191406" y="0" font-family="Virgil, Segoe UI Emoji" font-size="16px" fill="#1e1e1e" text-anchor="middle" style="white-space: pre;" direction="ltr" dominant-baseline="text-before-edge">Camera Reel </text><text x="52.984107971191406" y="20" font-family="Virgil, Segoe UI Emoji" font-size="16px" fill="#1e1e1e" text-anchor="middle" style="white-space: pre;" direction="ltr" dominant-baseline="text-before-edge">Service</text></g><g stroke-linecap="round" transform="translate(502.60051176599063 201.4827125353183) rotate(0 63.701002700423146 61.41262357115576)"><path d="M30.71 0 M30.71 0 C54.36 0.03, 75.26 -0.77, 96.7 0 M30.71 0 C55.75 0.25, 80.85 -1.4, 96.7 0 M96.7 0 C118.06 -1.95, 128.7 9.48, 127.4 30.71 M96.7 0 C115.21 -0.3, 125.78 9.56, 127.4 30.71 M127.4 30.71 C126.85 46.87, 126.84 60.94, 127.4 92.12 M127.4 30.71 C126.83 49, 127.05 67.57, 127.4 92.12 M127.4 92.12 C126.53 113.96, 118.18 121.97, 96.7 122.83 M127.4 92.12 C129.15 114.23, 118.56 123.75, 96.7 122.83 M96.7 122.83 C79.13 123.45, 65.92 120.9, 30.71 122.83 M96.7 122.83 C76.82 123.08, 55.37 122.92, 30.71 122.83 M30.71 122.83 C10.47 122.98, 0.09 113.8, 0 92.12 M30.71 122.83 C10.59 122.6, 0.86 111.23, 0 92.12 M0 92.12 C-1.32 69.19, 1.61 44.95, 0 30.71 M0 92.12 C-0.42 74.42, -0.24 57.09, 0 30.71 M0 30.71 C-1.36 10.64, 9.03 1.47, 30.71 0 M0 30.71 C-1.66 10.38, 10.85 1.24, 30.71 0" stroke="#1e1e1e" stroke-width="1" fill="none"></path></g><g transform="translate(513.3174064952224 242.89533610647408) rotate(0 52.98410797119135 20)"><text x="52.984107971191406" y="0" font-family="Virgil, Segoe UI Emoji" font-size="16px" fill="#1e1e1e" text-anchor="middle" style="white-space: pre;" direction="ltr" dominant-baseline="text-before-edge">Camera Reel </text><text x="52.984107971191406" y="20" font-family="Virgil, Segoe UI Emoji" font-size="16px" fill="#1e1e1e" text-anchor="middle" style="white-space: pre;" direction="ltr" dominant-baseline="text-before-edge">Service</text></g><g stroke-linecap="round" transform="translate(501.41063583897153 334.1883969828783) rotate(0 63.701002700423146 61.41262357115576)"><path d="M30.71 0 M30.71 0 C56.35 0.21, 79.47 -1.01, 96.7 0 M30.71 0 C47.17 -0.52, 64.36 -0.51, 96.7 0 M96.7 0 C115.69 0.42, 129.28 11.97, 127.4 30.71 M96.7 0 C115.55 0.27, 126.1 9.36, 127.4 30.71 M127.4 30.71 C127.89 47.53, 128.82 67.14, 127.4 92.12 M127.4 30.71 C127.49 45.19, 126.35 59.34, 127.4 92.12 M127.4 92.12 C126.86 114.2, 118.34 122.25, 96.7 122.83 M127.4 92.12 C125.41 114.83, 116.22 121.5, 96.7 122.83 M96.7 122.83 C78.34 125.11, 59.34 123.15, 30.71 122.83 M96.7 122.83 C70.94 123, 45.88 122.24, 30.71 122.83 M30.71 122.83 C8.45 124.15, -0.73 113.88, 0 92.12 M30.71 122.83 C12.05 121.89, 1.4 113.28, 0 92.12 M0 92.12 C1.01 74.72, 0.78 56.57, 0 30.71 M0 92.12 C0.12 75.66, 0.03 58.35, 0 30.71 M0 30.71 C1.54 11.3, 8.38 -0.53, 30.71 0 M0 30.71 C-0.6 12.44, 11.11 1.71, 30.71 0" stroke="#1e1e1e" stroke-width="1" fill="none"></path></g><g transform="translate(512.1275305682033 375.6010205540341) rotate(0 52.98410797119146 20)"><text x="52.984107971191406" y="0" font-family="Virgil, Segoe UI Emoji" font-size="16px" fill="#1e1e1e" text-anchor="middle" style="white-space: pre;" direction="ltr" dominant-baseline="text-before-edge">Camera Reel </text><text x="52.984107971191406" y="20" font-family="Virgil, Segoe UI Emoji" font-size="16px" fill="#1e1e1e" text-anchor="middle" style="white-space: pre;" direction="ltr" dominant-baseline="text-before-edge">Service</text></g><g stroke-linecap="round" transform="translate(264.1014560734525 30.796432157902984) rotate(0 64.17614086923288 229.79834178933416)"><path d="M32 0 M32 0 C54.32 -1.58, 79.31 1.05, 96.35 0 M32 0 C46.3 0.55, 59.42 -0.28, 96.35 0 M96.35 0 C115.81 0.48, 127.08 11.29, 128.35 32 M96.35 0 C116.74 0.01, 128.82 11.54, 128.35 32 M128.35 32 C129.48 120.77, 130.78 210.53, 128.35 427.6 M128.35 32 C129.83 120.64, 129.67 210.36, 128.35 427.6 M128.35 427.6 C127.98 449.77, 116.13 460.83, 96.35 459.6 M128.35 427.6 C130.16 448.59, 119.72 457.86, 96.35 459.6 M96.35 459.6 C73.48 461, 48.1 459.94, 32 459.6 M96.35 459.6 C72.59 459.51, 49.72 458.6, 32 459.6 M32 459.6 C10.84 457.66, -1.59 448.73, 0 427.6 M32 459.6 C11.77 458.35, -0.1 447.99, 0 427.6 M0 427.6 C0.09 272.09, 0.91 116.82, 0 32 M0 427.6 C2.47 345.09, 1.9 261.92, 0 32 M0 32 C-1.81 9.12, 12.31 0.71, 32 0 M0 32 C-2.17 12.85, 11.35 -1.39, 32 0" stroke="#1e1e1e" stroke-width="1" fill="none"></path></g><g transform="translate(271.00547932793927 250.59477394723714) rotate(0 57.272117614746094 10)"><text x="57.272117614746094" y="0" font-family="Virgil, Segoe UI Emoji" font-size="16px" fill="#1e1e1e" text-anchor="middle" style="white-space: pre;" direction="ltr" dominant-baseline="text-before-edge">Load Balancer</text></g><g stroke-linecap="round" transform="translate(10 381.2818993299047) rotate(0 44.86603836760645 42.66903196311017)"><path d="M26.06 3.59 C32.86 0.08, 43.09 -0.77, 51.26 0.3 C59.43 1.37, 68.83 4.97, 75.08 10 C81.33 15.04, 86.55 22.85, 88.75 30.51 C90.95 38.18, 90.93 48.66, 88.28 56 C85.64 63.34, 79.11 69.7, 72.87 74.54 C66.63 79.37, 58.78 84, 50.87 85.01 C42.96 86.02, 32.87 83.72, 25.4 80.57 C17.94 77.42, 10.4 72.66, 6.08 66.11 C1.76 59.57, -0.72 49.07, -0.51 41.31 C-0.3 33.54, 2.28 26.11, 7.36 19.5 C12.43 12.9, 25.69 4.57, 29.94 1.68 C34.19 -1.22, 32.75 1.48, 32.86 2.13 M57.19 2.92 C64.91 4.68, 73.83 10.29, 79.07 15.99 C84.31 21.69, 87.55 29.71, 88.64 37.11 C89.73 44.51, 88.87 53.28, 85.59 60.39 C82.31 67.49, 75.97 75.33, 68.97 79.73 C61.97 84.14, 51.67 86.95, 43.58 86.83 C35.5 86.71, 27.2 83.24, 20.47 79 C13.74 74.77, 6.67 68.34, 3.19 61.43 C-0.29 54.51, -1.85 45.31, -0.41 37.5 C1.03 29.7, 6.38 20.57, 11.81 14.57 C17.24 8.58, 24.65 3.6, 32.17 1.54 C39.68 -0.51, 52.75 2.18, 56.89 2.25 C61.03 2.33, 57.14 1.48, 57 1.98" stroke="f0000" stroke-width="1" fill="none"></path></g><g transform="translate(36.768918597974164 413.7793694452341) rotate(0 17.872039794921875 10)"><text x="17.872039794921875" y="0" font-family="Virgil, Segoe UI Emoji" font-size="16px" fill="f0000" text-anchor="middle" style="white-space: pre;" direction="ltr" dominant-baseline="text-before-edge">User</text></g><g stroke-linecap="round" transform="translate(271.1960405256798 572.24683309152) rotate(0 63.5 46.5)"><path d="M23.25 0 M23.25 0 C48.86 0.71, 75.52 0.38, 103.75 0 M23.25 0 C54.88 -1.25, 85.06 0.39, 103.75 0 M103.75 0 C120.77 0.29, 127.21 8.76, 127 23.25 M103.75 0 C117.65 2.18, 129.09 9.15, 127 23.25 M127 23.25 C128.57 38.88, 126.79 53.2, 127 69.75 M127 23.25 C126.67 39.54, 126.93 58.2, 127 69.75 M127 69.75 C128.34 83.85, 119.67 92.4, 103.75 93 M127 69.75 C128.36 85.88, 118.97 95.19, 103.75 93 M103.75 93 C71.67 95.33, 40.58 92.77, 23.25 93 M103.75 93 C88.05 92.93, 69.93 93.03, 23.25 93 M23.25 93 C7.37 91.83, 1.06 84.5, 0 69.75 M23.25 93 C5.76 94.88, -0.26 86.43, 0 69.75 M0 69.75 C0.66 51.91, 1.01 32.35, 0 23.25 M0 69.75 C-0.38 54.75, -0.65 38.42, 0 23.25 M0 23.25 C-0.21 9.18, 7.27 0.9, 23.25 0 M0 23.25 C-1.17 8.43, 6.13 -1.97, 23.25 0" stroke="#1e1e1e" stroke-width="1" fill="none"></path></g><g transform="translate(293.1919587996056 598.74683309152) rotate(0 41.50408172607422 20)"><text x="41.50408172607422" y="0" font-family="Virgil, Segoe UI Emoji" font-size="16px" fill="#1e1e1e" text-anchor="middle" style="white-space: pre;" direction="ltr" dominant-baseline="text-before-edge">AWS </text><text x="41.50408172607422" y="20" font-family="Virgil, Segoe UI Emoji" font-size="16px" fill="#1e1e1e" text-anchor="middle" style="white-space: pre;" direction="ltr" dominant-baseline="text-before-edge">CloudFront</text></g><g stroke-linecap="round"><g transform="translate(96.51205865773966 386.44312296799745) rotate(0 71.32140155366301 -26.111624787401965)"><path d="M0.1 -0.58 C24.17 -9.39, 119.79 -43.27, 143.95 -52.15 M-1.3 1.72 C22.64 -7.5, 118.57 -44.8, 142.92 -53.95" stroke="#ff0000" stroke-width="1" fill="none"></path></g><g transform="translate(96.51205865773966 386.44312296799745) rotate(0 71.32140155366301 -26.111624787401965)"><path d="M119.29 -34.53 C127.09 -37.82, 130.12 -42.6, 142.45 -54.34 M121.12 -34.22 C126.02 -38.98, 132.01 -44.05, 142.1 -54.55" stroke="#ff0000" stroke-width="1" fill="none"></path></g><g transform="translate(96.51205865773966 386.44312296799745) rotate(0 71.32140155366301 -26.111624787401965)"><path d="M111.95 -53.69 C121.77 -51.99, 126.72 -51.78, 142.45 -54.34 M113.78 -53.38 C120.64 -53.11, 128.58 -53.09, 142.1 -54.55" stroke="#ff0000" stroke-width="1" fill="none"></path></g></g><mask></mask><g stroke-linecap="round" transform="translate(477.5115920488406 10) rotate(0 87.23252508647454 236.9233838164852)"><path d="M32 0 M32 0 C55.92 -1.19, 74.94 -0.18, 142.47 0 M142.47 0 C163.94 -1.66, 172.73 11.18, 174.47 32 M174.47 32 C175.71 139.49, 176.86 245.9, 174.47 441.85 M174.47 441.85 C172.57 461.31, 162.41 475.52, 142.47 473.85 M142.47 473.85 C104.14 473.46, 62.76 471.2, 32 473.85 M32 473.85 C10.15 473.71, 0.27 463.64, 0 441.85 M0 441.85 C1.25 306.75, 1.37 173.03, 0 32 M0 32 C-1.38 9.32, 10.82 -0.23, 32 0" stroke="#343a40" stroke-width="1.5" fill="none" stroke-dasharray="8 9"></path></g><g stroke-linecap="round"><g transform="translate(409.37190542953704 270.5360745624096) rotate(0 20.96647298827031 0.4461746244933611)"><path d="M-0.94 -1.05 C5.85 -0.74, 33.71 1.66, 40.65 1.95 M0.77 1.01 C7.94 0.94, 35.81 -0.08, 42.87 0" stroke="#ff0000" stroke-width="1" fill="none"></path></g><g transform="translate(409.37190542953704 270.5360745624096) rotate(0 20.96647298827031 0.4461746244933611)"><path d="M21.68 5.86 C29.69 3.92, 33.25 4.84, 43.44 -1.04 M23.98 8 C26.87 6.37, 32.49 3.41, 43.51 0.21" stroke="#ff0000" stroke-width="1" fill="none"></path></g><g transform="translate(409.37190542953704 270.5360745624096) rotate(0 20.96647298827031 0.4461746244933611)"><path d="M21.45 -8.37 C29.54 -6.12, 33.16 -1.02, 43.44 -1.04 M23.76 -6.23 C26.7 -4.79, 32.37 -4.66, 43.51 0.21" stroke="#ff0000" stroke-width="1" fill="none"></path></g></g><mask></mask><g stroke-linecap="round"><g transform="translate(668.5902340901714 161.42165310104423) rotate(0 18.009883129774494 0.7344767677762931)"><path d="M0.29 1.06 C6.53 1.17, 31.08 0.23, 37.04 0.16 M-1.02 0.57 C5.09 0.86, 29.49 1.11, 36.06 1.31" stroke="#ff0000" stroke-width="1" fill="none"></path></g><g transform="translate(668.5902340901714 161.42165310104423) rotate(0 18.009883129774494 0.7344767677762931)"><path d="M20.13 7.2 C22.08 4.04, 27.47 3.72, 37.55 0.88 M18.7 6.74 C22.86 5.39, 27.97 2.94, 35.86 1.2" stroke="#ff0000" stroke-width="1" fill="none"></path></g><g transform="translate(668.5902340901714 161.42165310104423) rotate(0 18.009883129774494 0.7344767677762931)"><path d="M20.39 -5.49 C22.22 -5.26, 27.54 -2.18, 37.55 0.88 M18.95 -5.95 C22.97 -3.56, 28.01 -2.26, 35.86 1.2" stroke="#ff0000" stroke-width="1" fill="none"></path></g></g><mask></mask><g stroke-linecap="round"><g transform="translate(571.4164812419447 494.104878867273) rotate(0 -0.3764858706751397 20.514854561945498)"><path d="M0.03 0.6 C0.09 7.27, 0.61 33.08, 0.66 39.72 M-1.41 -0.14 C-1.47 6.75, -0.1 34.75, 0.1 41.17" stroke="#ff0000" stroke-width="1" fill="none"></path></g><g transform="translate(571.4164812419447 494.104878867273) rotate(0 -0.3764858706751397 20.514854561945498)"><path d="M-6.49 23.94 C-5.36 29.39, -1.76 32.78, -0.47 39.25 M-7.65 22.76 C-6.65 26.8, -4.33 32.88, 0.34 41.91" stroke="#ff0000" stroke-width="1" fill="none"></path></g><g transform="translate(571.4164812419447 494.104878867273) rotate(0 -0.3764858706751397 20.514854561945498)"><path d="M7.14 23.39 C3.86 29.02, 3.04 32.59, -0.47 39.25 M5.98 22.2 C3.47 26.49, 2.29 32.71, 0.34 41.91" stroke="#ff0000" stroke-width="1" fill="none"></path></g></g><mask></mask><g stroke-linecap="round"><g transform="translate(701.0173988589379 189.6382700492433) rotate(0 -17.061538463572788 -0.6385286925796194)"><path d="M-0.36 -0.32 C-6.31 -0.18, -30 0.23, -35.78 0.29 M1.66 -1.54 C-3.93 -1.66, -27.3 -1.24, -33.55 -1.3" stroke="#1971c2" stroke-width="1" fill="none"></path></g><g transform="translate(701.0173988589379 189.6382700492433) rotate(0 -17.061538463572788 -0.6385286925796194)"><path d="M-17.67 -8.68 C-20.59 -5.83, -25.82 -4.32, -34.6 -0.19 M-17.51 -7.95 C-21.41 -6.56, -24.94 -3.68, -34.39 -1.63" stroke="#1971c2" stroke-width="1" fill="none"></path></g><g transform="translate(701.0173988589379 189.6382700492433) rotate(0 -17.061538463572788 -0.6385286925796194)"><path d="M-17.61 3.24 C-20.49 2.56, -25.74 0.53, -34.6 -0.19 M-17.45 3.98 C-21.41 2.37, -24.96 2.26, -34.39 -1.63" stroke="#1971c2" stroke-width="1" fill="none"></path></g></g><mask></mask><g stroke-linecap="round"><g transform="translate(453.466351899076 240.21425683001144) rotate(0 -23.82144204479698 0.1295185832765966)"><path d="M-1.09 0.24 C-8.91 0.15, -39.82 -0.1, -47.58 -0.26 M0.53 -0.68 C-7.33 -0.65, -40.08 0.83, -48.18 0.94" stroke="#1971c2" stroke-width="1" fill="none"></path></g><g transform="translate(453.466351899076 240.21425683001144) rotate(0 -23.82144204479698 0.1295185832765966)"><path d="M-25.38 -6.9 C-32.31 -4.99, -38.64 -5.51, -48.55 -0.59 M-25.06 -7.27 C-32.48 -6.08, -38.21 -3.48, -47.38 1.47" stroke="#1971c2" stroke-width="1" fill="none"></path></g><g transform="translate(453.466351899076 240.21425683001144) rotate(0 -23.82144204479698 0.1295185832765966)"><path d="M-24.87 9.59 C-31.96 7.44, -38.41 2.88, -48.55 -0.59 M-24.55 9.22 C-32.13 5.68, -38 3.56, -47.38 1.47" stroke="#1971c2" stroke-width="1" fill="none"></path></g></g><mask></mask><g stroke-linecap="round"><g transform="translate(241.2948239705854 376.5621319294287) rotate(0 -66.36315452550804 21.016279211909335)"><path d="M0.37 -1.02 C-21.8 6.35, -109.92 35.94, -132.09 43.05 M-0.9 1.06 C-23.31 8.18, -110.95 34.39, -133.09 41.32" stroke="#1971c2" stroke-width="1" fill="none"></path></g><g transform="translate(241.2948239705854 376.5621319294287) rotate(0 -66.36315452550804 21.016279211909335)"><path d="M-110.82 23.1 C-117.08 29.03, -128.47 36.04, -131.74 41.68 M-108.34 24.13 C-116.09 27.34, -120.6 32, -133.13 40.6" stroke="#1971c2" stroke-width="1" fill="none"></path></g><g transform="translate(241.2948239705854 376.5621319294287) rotate(0 -66.36315452550804 21.016279211909335)"><path d="M-104.83 42.73 C-113.16 41.29, -126.8 40.92, -131.74 41.68 M-102.35 43.76 C-111.63 41.91, -117.67 41.55, -133.13 40.6" stroke="#1971c2" stroke-width="1" fill="none"></path></g></g><mask></mask><g stroke-linecap="round"><g transform="translate(251.70617032746873 580.7078264145484) rotate(0 -72.74984263821693 -63.14034689020261)"><path d="M0.29 -0.39 C-24.02 -21.24, -120.78 -104.94, -145.18 -125.89 M-1.02 -1.65 C-25.49 -22.23, -121.45 -103.89, -145.79 -124.43" stroke="#1971c2" stroke-width="1" fill="none"></path></g><g transform="translate(251.70617032746873 580.7078264145484) rotate(0 -72.74984263821693 -63.14034689020261)"><path d="M-118.31 -112.93 C-127.9 -118.19, -138.24 -119.68, -146.55 -122.98 M-117.32 -114.11 C-125.98 -117.4, -134.79 -119.58, -146.28 -124.02" stroke="#1971c2" stroke-width="1" fill="none"></path></g><g transform="translate(251.70617032746873 580.7078264145484) rotate(0 -72.74984263821693 -63.14034689020261)"><path d="M-131.58 -97.28 C-136.32 -108.16, -141.92 -115.25, -146.55 -122.98 M-130.59 -98.46 C-135.29 -106.4, -140.13 -113.25, -146.28 -124.02" stroke="#1971c2" stroke-width="1" fill="none"></path></g></g><mask></mask><g stroke-linecap="round"><g transform="translate(485.802143943072 629.2954513857853) rotate(0 -35.78933053470331 -1.1521328339356387)"><path d="M-0.63 0.17 C-12.77 0.17, -60.85 -0.47, -72.82 -0.68 M1.24 -0.79 C-10.55 -1.07, -58.84 -2.65, -70.7 -2.45" stroke="#1971c2" stroke-width="1" fill="none"></path></g><g transform="translate(485.802143943072 629.2954513857853) rotate(0 -35.78933053470331 -1.1521328339356387)"><path d="M-42.11 -14.26 C-49.93 -10.78, -59.14 -5.72, -69.17 -0.5 M-42.1 -11.41 C-50.07 -8.82, -58.06 -7.37, -70.7 -2.12" stroke="#1971c2" stroke-width="1" fill="none"></path></g><g transform="translate(485.802143943072 629.2954513857853) rotate(0 -35.78933053470331 -1.1521328339356387)"><path d="M-42.35 6.26 C-49.98 3.53, -59.12 2.37, -69.17 -0.5 M-42.34 9.11 C-50.1 6.02, -58.02 1.79, -70.7 -2.12" stroke="#1971c2" stroke-width="1" fill="none"></path></g></g><mask></mask><g stroke-linecap="round" transform="translate(502.14973965711965 548.3660638463439) rotate(0 63.701002700423146 61.41262357115576)"><path d="M30.71 0 M30.71 0 C47.12 -2.04, 66.08 0.23, 96.7 0 M30.71 0 C57.69 -0.27, 83.49 -0.06, 96.7 0 M96.7 0 C116.28 0, 126.94 9.62, 127.4 30.71 M96.7 0 C116.06 1.28, 129.06 10.3, 127.4 30.71 M127.4 30.71 C125.37 53.62, 126.05 72.56, 127.4 92.12 M127.4 30.71 C127.48 47.27, 127.71 64.97, 127.4 92.12 M127.4 92.12 C125.93 113.82, 115.27 124.4, 96.7 122.83 M127.4 92.12 C125.61 111.55, 117.45 123.66, 96.7 122.83 M96.7 122.83 C78.09 123, 62.34 122.55, 30.71 122.83 M96.7 122.83 C76.29 121.97, 58.25 123.59, 30.71 122.83 M30.71 122.83 C11.82 123.73, -0.65 114.48, 0 92.12 M30.71 122.83 C11.12 123.58, 1.12 112.16, 0 92.12 M0 92.12 C1.91 72.43, -0.92 50.8, 0 30.71 M0 92.12 C0.18 74.85, 0.35 55.23, 0 30.71 M0 30.71 C1.57 10.17, 11.94 -0.26, 30.71 0 M0 30.71 C0.91 9.68, 10.14 -1.59, 30.71 0" stroke="#1e1e1e" stroke-width="1" fill="none"></path></g><g transform="translate(535.4586754019765 599.7786874174997) rotate(0 30.392066955566406 10)"><text x="30.392066955566406" y="0" font-family="Virgil, Segoe UI Emoji" font-size="16px" fill="#1e1e1e" text-anchor="middle" style="white-space: pre;" direction="ltr" dominant-baseline="text-before-edge">AWS S3</text></g><g transform="translate(516.2200502965893 623.9719173319443) rotate(0 51.05610656738281 20)"><text x="51.05610656738281" y="0" font-family="Virgil, Segoe UI Emoji" font-size="16px" fill="#2f9e44" text-anchor="middle" style="white-space: pre;" direction="ltr" dominant-baseline="text-before-edge">Screenshot +</text><text x="51.05610656738281" y="20" font-family="Virgil, Segoe UI Emoji" font-size="16px" fill="#2f9e44" text-anchor="middle" style="white-space: pre;" direction="ltr" dominant-baseline="text-before-edge">Thumbnail</text></g><g stroke-linecap="round" transform="translate(724.583439829903 113.46438201581225) rotate(0 63.701002700423146 61.41262357115576)"><path d="M30.71 0 M30.71 0 C51.58 -0.93, 71.23 -0.75, 96.7 0 M30.71 0 C46.45 -0.25, 61.19 0.25, 96.7 0 M96.7 0 C117.3 0.78, 128.02 11.16, 127.4 30.71 M96.7 0 C118.72 -0.09, 128.73 9.04, 127.4 30.71 M127.4 30.71 C126.17 43.28, 126.17 60.61, 127.4 92.12 M127.4 30.71 C127.29 51.13, 127.05 70.64, 127.4 92.12 M127.4 92.12 C127.22 111.56, 115.62 123.45, 96.7 122.83 M127.4 92.12 C125.12 111.16, 115.65 120.62, 96.7 122.83 M96.7 122.83 C71.6 120.9, 50.42 122.35, 30.71 122.83 M96.7 122.83 C82.61 122.91, 67.3 123.33, 30.71 122.83 M30.71 122.83 C9.03 122.29, -1.06 113.85, 0 92.12 M30.71 122.83 C9.55 124.42, -0.85 112.1, 0 92.12 M0 92.12 C-0.72 71.36, -2.01 49.34, 0 30.71 M0 92.12 C-0.44 71.41, 0.04 50.74, 0 30.71 M0 30.71 C0.45 11.07, 9.36 -0.63, 30.71 0 M0 30.71 C-0.7 8.15, 8.86 1.66, 30.71 0" stroke="#1e1e1e" stroke-width="1" fill="none"></path></g><g transform="translate(751.6763645273963 164.877005586968) rotate(0 36.60807800292969 10)"><text x="36.60807800292969" y="0" font-family="Virgil, Segoe UI Emoji" font-size="16px" fill="#1e1e1e" text-anchor="middle" style="white-space: pre;" direction="ltr" dominant-baseline="text-before-edge">AWS RDS</text></g><g transform="translate(746.3569535859101 201.82992888944847) rotate(0 40.104095458984375 10)"><text x="40.104095458984375" y="0" font-family="Virgil, Segoe UI Emoji" font-size="16px" fill="#2f9e44" text-anchor="middle" style="white-space: pre;" direction="ltr" dominant-baseline="text-before-edge">Metadata</text></g><g transform="translate(718.9670630139726 582.9354113847444) rotate(0 2.7310292181584828 1.0152524974567427)" stroke="none"><path fill="#1971c2" d="M 2.43,1.01 Q 2.43,1.01 1.95,2.12 1.47,3.23 1.41,2.08 1.35,0.93 1.10,0.59 0.86,0.24 0.55,-0.00 0.24,-0.25 0.00,-0.57 -0.24,-0.89 -0.39,-1.26 -0.55,-1.63 -0.62,-2.03 -0.68,-2.42 -0.65,-2.82 -0.62,-3.22 -0.49,-3.60 -0.37,-3.99 -0.15,-4.32 0.05,-4.66 0.34,-4.94 0.63,-5.22 0.97,-5.42 1.32,-5.62 1.71,-5.74 2.09,-5.85 2.49,-5.87 2.89,-5.88 3.29,-5.80 3.68,-5.72 4.04,-5.55 4.41,-5.38 4.87,-3.05 5.33,-0.73 4.62,0.39 3.91,1.52 4.08,2.83 4.25,4.14 4.89,3.01 5.54,1.88 5.05,0.60 4.56,-0.66 3.77,0.09 2.97,0.85 2.65,1.91 2.33,2.97 3.90,1.55 5.47,0.13 3.76,0.17 2.04,0.21 2.48,1.20 2.92,2.20 3.80,2.94 4.69,3.69 4.62,4.13 4.55,4.56 4.38,4.97 4.21,5.38 3.94,5.73 3.68,6.08 3.34,6.36 3.00,6.64 2.60,6.83 2.20,7.02 1.77,7.11 1.34,7.20 0.90,7.18 0.46,7.17 0.03,7.04 -0.38,6.92 -0.76,6.70 -1.14,6.48 -1.46,6.18 -1.78,5.87 -2.02,5.50 -2.25,5.13 -2.39,4.71 -2.54,4.29 -2.57,3.85 -2.61,3.41 -1.93,3.41 -1.26,3.41 -1.77,3.11 -2.28,2.82 -2.67,2.38 -3.07,1.94 -3.30,1.40 -3.53,0.86 -3.57,0.27 -3.62,-0.30 -3.48,-0.87 -3.33,-1.44 -3.01,-1.94 -2.69,-2.43 -2.23,-2.80 -1.77,-3.17 -1.22,-3.37 -0.67,-3.57 -0.08,-3.58 0.50,-3.60 1.06,-3.42 1.62,-3.25 2.10,-2.90 2.58,-2.56 2.92,-2.08 3.26,-1.60 3.43,-1.04 3.60,-0.47 3.58,0.10 3.56,0.69 3.36,1.24 3.16,1.80 2.78,2.25 2.41,2.71 1.92,3.03 1.42,3.34 0.85,3.48 0.28,3.62 -0.30,3.57 -0.89,3.52 -1.43,3.29 -1.96,3.05 -2.40,2.66 -2.84,2.26 -3.13,1.75 -3.41,1.24 -3.52,0.66 -3.63,0.08 -3.55,-0.49 -3.47,-1.08 -3.20,-1.60 -2.94,-2.13 -2.52,-2.54 -2.11,-2.96 -1.58,-3.22 -1.05,-3.48 -0.47,-3.55 0.11,-3.63 0.68,-3.52 1.26,-3.40 1.26,-3.40 1.26,-3.41 2.98,0.14 4.69,3.69 4.62,4.13 4.55,4.56 4.38,4.97 4.21,5.38 3.94,5.73 3.68,6.08 3.34,6.36 3.00,6.64 2.60,6.83 2.20,7.02 1.77,7.11 1.34,7.20 0.90,7.18 0.46,7.17 0.03,7.04 -0.38,6.92 -0.76,6.70 -1.14,6.48 -1.46,6.18 -1.78,5.87 -2.02,5.50 -2.25,5.13 -2.39,4.71 -2.54,4.29 -2.57,3.85 -2.61,3.42 -2.61,3.79 -2.60,4.16 -2.84,2.96 -3.09,1.76 -2.71,0.04 -2.32,-1.66 -1.48,-2.70 -0.65,-3.75 1.87,-4.37 4.40,-4.99 5.46,-4.63 6.51,-4.26 7.29,-3.16 8.07,-2.07 8.34,-0.23 8.62,1.60 7.88,2.99 7.14,4.38 3.56,3.67 -0.01,2.96 -0.35,1.53 -0.69,0.11 0.42,-1.59 1.54,-3.30 3.96,-3.28 6.39,-3.25 7.52,-1.84 8.65,-0.43 9.03,0.95 9.41,2.35 9.04,3.73 8.67,5.11 7.56,5.78 6.45,6.45 4.84,6.60 3.23,6.76 1.92,6.01 0.61,5.26 -0.04,4.28 -0.69,3.31 -1.01,1.75 -1.33,0.19 -0.92,-0.80 -0.52,-1.79 0.56,-2.46 1.65,-3.12 3.23,-3.28 4.81,-3.45 5.99,-2.82 7.18,-2.19 8.21,-1.28 9.24,-0.37 9.50,1.31 9.75,3.00 8.45,4.37 7.15,5.75 5.75,5.85 4.34,5.95 2.68,5.12 1.01,4.30 0.31,3.27 -0.38,2.24 -0.65,0.63 -0.92,-0.96 -0.62,-2.49 -0.31,-4.02 0.27,-1.88 0.86,0.24 0.55,-0.00 0.24,-0.25 0.00,-0.57 -0.24,-0.89 -0.39,-1.26 -0.55,-1.63 -0.62,-2.03 -0.68,-2.42 -0.65,-2.82 -0.62,-3.22 -0.49,-3.60 -0.37,-3.98 -0.15,-4.32 0.05,-4.66 0.34,-4.94 0.63,-5.22 0.97,-5.42 1.32,-5.62 1.71,-5.74 2.09,-5.85 2.49,-5.87 2.89,-5.88 3.29,-5.80 3.68,-5.72 4.04,-5.55 4.41,-5.38 4.68,-4.82 4.96,-4.25 5.84,-3.07 6.71,-1.89 7.19,-0.67 7.66,0.54 7.62,1.78 7.59,3.02 7.14,4.66 6.70,6.30 5.72,6.98 4.74,7.67 3.04,7.82 1.35,7.98 -0.32,7.34 -2.00,6.71 -2.68,5.67 -3.35,4.63 -3.40,3.08 -3.45,1.52 -2.94,0.25 -2.43,-1.01 -2.27,-1.28 -2.12,-1.56 -1.90,-1.79 -1.68,-2.02 -1.41,-2.19 -1.15,-2.37 -0.85,-2.47 -0.55,-2.57 -0.23,-2.60 0.08,-2.63 0.39,-2.58 0.71,-2.53 1.00,-2.41 1.29,-2.29 1.55,-2.10 1.80,-1.91 2.01,-1.67 2.21,-1.42 2.35,-1.14 2.49,-0.85 2.55,-0.54 2.62,-0.23 2.61,0.08 2.60,0.40 2.52,0.70 2.43,1.01 2.43,1.01 L 2.43,1.01 Z"></path></g><g transform="translate(722.9834018939114 610.6964756752002) rotate(0 -0.6599141233469936 1.5269397561748974)" stroke="none"><path fill="#ff0000" d="M 1.50,2.17 Q 1.50,2.17 0.94,2.59 0.38,3.01 -0.42,2.17 -1.23,1.32 -0.41,2.27 0.40,3.23 0.32,3.64 0.24,4.05 0.06,4.42 -0.11,4.80 -0.37,5.13 -0.63,5.45 -0.96,5.70 -1.29,5.96 -1.68,6.12 -2.06,6.29 -2.47,6.36 -2.88,6.43 -3.30,6.39 -3.71,6.36 -4.11,6.23 -4.51,6.10 -4.86,5.88 -5.21,5.66 -5.50,5.36 -5.80,5.06 -6.01,4.70 -6.22,4.34 -6.33,3.94 -6.45,3.54 -6.47,3.13 -6.49,2.71 -6.53,1.46 -6.57,0.22 -6.52,-0.19 -6.47,-0.61 -6.32,-1.01 -6.17,-1.40 -5.93,-1.75 -5.69,-2.10 -5.37,-2.38 -5.06,-2.66 -4.68,-2.86 -4.31,-3.05 -3.90,-3.15 -3.49,-3.26 -3.07,-3.26 -2.65,-3.26 -2.24,-3.16 -1.83,-3.06 -1.45,-2.86 -1.08,-2.66 -0.76,-2.38 -0.45,-2.10 -0.21,-1.76 0.02,-1.41 0.18,-1.02 0.33,-0.62 0.38,-0.20 0.43,0.21 -0.89,-1.24 -2.21,-2.70 -3.22,-2.22 -4.22,-1.74 -4.09,-2.07 -3.95,-2.40 -3.60,-2.65 -3.26,-2.89 -2.86,-3.05 -2.46,-3.20 -2.04,-3.26 -1.61,-3.31 -1.19,-3.27 -0.77,-3.22 -0.37,-3.07 0.03,-2.92 0.38,-2.69 0.73,-2.45 1.02,-2.13 1.31,-1.81 1.51,-1.44 1.71,-1.06 1.82,-0.65 1.92,-0.23 1.93,0.18 1.93,0.61 1.83,1.03 1.73,1.44 1.54,1.82 1.35,2.20 1.07,2.52 0.79,2.85 0.36,-0.27 -0.05,-3.40 0.49,-3.32 1.03,-3.24 1.52,-2.99 2.01,-2.74 2.40,-2.35 2.79,-1.95 3.02,-1.46 3.26,-0.96 3.33,-0.41 3.40,0.13 3.29,0.67 3.18,1.21 2.90,1.68 2.63,2.16 2.21,2.52 1.80,2.89 1.29,3.10 0.78,3.31 0.23,3.35 -0.31,3.39 -0.84,3.25 -1.38,3.11 -1.84,2.81 -2.30,2.51 -2.64,2.07 -2.98,1.64 -3.16,1.12 -3.35,0.60 -3.36,0.05 -3.37,-0.49 -3.20,-1.02 -3.03,-1.54 -2.70,-1.99 -2.38,-2.43 -1.93,-2.75 -1.47,-3.07 -0.95,-3.22 -0.42,-3.38 0.12,-3.36 0.68,-3.33 1.19,-3.14 1.71,-2.94 2.13,-2.59 2.56,-2.24 2.85,-1.77 3.14,-1.31 3.27,-0.77 3.39,-0.23 3.34,0.31 3.29,0.86 3.07,1.36 2.85,1.86 2.47,2.27 2.10,2.68 1.62,2.94 1.13,3.21 0.59,3.30 0.05,3.40 0.05,3.40 0.05,3.40 -1.95,0.50 -3.95,-2.40 -3.61,-2.65 -3.26,-2.89 -2.86,-3.05 -2.46,-3.20 -2.04,-3.26 -1.61,-3.31 -1.19,-3.27 -0.77,-3.22 -0.37,-3.07 0.03,-2.92 0.38,-2.69 0.73,-2.45 1.02,-2.13 1.31,-1.81 1.51,-1.44 1.71,-1.06 1.82,-0.65 1.92,-0.23 1.93,0.18 1.93,0.61 1.83,1.02 1.73,1.44 1.54,1.82 1.35,2.20 1.07,2.52 0.79,2.84 0.18,3.20 -0.42,3.56 -2.17,3.44 -3.92,3.32 -5.24,1.77 -6.57,0.22 -6.52,-0.19 -6.47,-0.61 -6.32,-1.01 -6.17,-1.40 -5.93,-1.75 -5.69,-2.10 -5.37,-2.38 -5.06,-2.66 -4.68,-2.86 -4.31,-3.05 -3.90,-3.15 -3.49,-3.26 -3.07,-3.26 -2.65,-3.26 -2.24,-3.16 -1.83,-3.06 -1.45,-2.86 -1.08,-2.66 -0.76,-2.38 -0.45,-2.10 -0.21,-1.76 0.02,-1.41 0.17,-1.02 0.33,-0.62 0.38,-0.20 0.43,0.21 0.41,1.72 0.40,3.23 0.32,3.64 0.24,4.05 0.06,4.42 -0.11,4.80 -0.37,5.13 -0.63,5.45 -0.96,5.70 -1.29,5.96 -1.68,6.12 -2.06,6.29 -2.47,6.36 -2.88,6.43 -3.30,6.39 -3.71,6.36 -4.11,6.23 -4.51,6.10 -4.86,5.88 -5.21,5.66 -5.50,5.36 -5.79,5.06 -6.01,4.70 -6.22,4.34 -6.33,3.94 -6.45,3.54 -6.47,3.13 -6.49,2.71 -6.47,2.20 -6.45,1.69 -6.13,0.10 -5.82,-1.49 -5.04,-2.51 -4.25,-3.54 -2.85,-4.11 -1.46,-4.69 0.18,-4.44 1.83,-4.19 3.25,-2.43 4.67,-0.66 4.89,1.00 5.11,2.67 4.60,4.28 4.08,5.88 3.06,6.49 2.03,7.09 0.00,6.95 -2.03,6.82 -2.95,6.05 -3.87,5.29 -4.30,3.91 -4.72,2.53 -4.46,1.45 -4.19,0.38 -3.53,-0.45 -2.86,-1.29 -2.18,-1.73 -1.50,-2.17 -1.22,-2.32 -0.94,-2.47 -0.63,-2.54 -0.32,-2.62 -0.00,-2.62 0.31,-2.62 0.62,-2.54 0.93,-2.47 1.21,-2.32 1.49,-2.17 1.73,-1.96 1.97,-1.75 2.15,-1.49 2.33,-1.23 2.45,-0.93 2.56,-0.63 2.60,-0.32 2.64,-0.00 2.60,0.31 2.56,0.62 2.45,0.92 2.34,1.22 2.16,1.48 1.98,1.74 1.74,1.96 1.50,2.17 1.50,2.17 L 1.50,2.17 Z"></path></g><g transform="translate(743.5809163784604 572.1574908717439) rotate(0 56.19212341308594 10)"><text x="56.19212341308594" y="0" font-family="Virgil, Segoe UI Emoji" font-size="16px" fill="#1e1e1e" text-anchor="middle" style="white-space: pre;" direction="ltr" dominant-baseline="text-before-edge">Retrieve data</text></g><g transform="translate(745.5945889795817 600.9581737195956) rotate(0 53.22411346435547 10)"><text x="53.22411346435547" y="0" font-family="Virgil, Segoe UI Emoji" font-size="16px" fill="#1e1e1e" text-anchor="middle" style="white-space: pre;" direction="ltr" dominant-baseline="text-before-edge">Upload Image</text></g><g transform="translate(722.3214572655695 643.0058711542622) rotate(0 -1.2203335019428323 -2.9076831527159754)" stroke="none"><path fill="#2f9e44" d="M -0.14,2.65 Q -0.14,2.65 -1.39,2.56 -2.65,2.47 -3.74,1.90 -4.82,1.34 -6.07,0.32 -7.32,-0.69 -7.68,-2.23 -8.04,-3.77 -7.37,-5.90 -6.69,-8.03 -5.61,-8.73 -4.53,-9.42 -3.00,-9.71 -1.48,-10.00 0.46,-9.54 2.42,-9.08 3.78,-8.06 5.15,-7.03 5.42,-5.87 5.70,-4.71 5.35,-3.36 5.00,-2.00 4.37,-1.02 3.73,-0.03 2.77,0.89 1.81,1.82 0.23,2.18 -1.34,2.55 -2.59,2.20 -3.84,1.85 -4.83,1.12 -5.82,0.39 -6.20,-1.27 -6.59,-2.94 -6.26,-4.16 -5.93,-5.38 -5.19,-6.42 -4.44,-7.45 -3.42,-7.80 -2.40,-8.14 -1.17,-7.99 0.06,-7.85 1.25,-5.43 2.45,-3.01 1.86,-1.94 1.27,-0.86 0.18,-0.32 -0.91,0.22 -1.38,0.28 -1.86,0.34 -2.28,0.42 -2.71,0.50 -3.14,0.47 -3.58,0.45 -3.99,0.32 -4.40,0.19 -4.77,-0.02 -5.15,-0.24 -5.45,-0.55 -5.76,-0.86 -5.99,-1.23 -6.21,-1.60 -6.34,-2.01 -6.47,-2.42 -6.50,-2.85 -6.53,-3.29 -6.45,-3.71 -6.37,-4.14 -6.20,-4.54 -6.02,-4.93 -5.75,-5.27 -5.49,-5.62 -5.15,-5.88 -4.81,-6.15 -4.41,-6.33 -4.02,-6.51 -0.89,-4.32 2.23,-2.13 2.52,-1.72 2.80,-1.30 2.94,-0.82 3.07,-0.34 3.05,0.15 3.02,0.65 2.84,1.12 2.65,1.58 2.33,1.96 2.01,2.35 1.58,2.61 1.15,2.87 0.66,2.98 0.17,3.08 -0.32,3.03 -0.81,2.98 -1.27,2.77 -1.72,2.56 -2.09,2.22 -2.45,1.88 -2.69,1.43 -2.92,0.99 -3.01,0.50 -3.09,0.00 -3.01,-0.48 -2.93,-0.97 -2.70,-1.42 -2.46,-1.86 -2.10,-2.21 -1.74,-2.55 -1.29,-2.76 -0.83,-2.97 -0.33,-3.03 0.15,-3.09 0.64,-2.98 1.13,-2.87 1.56,-2.62 1.99,-2.36 2.32,-1.98 2.64,-1.60 2.83,-1.13 3.02,-0.67 3.04,-0.17 3.07,0.32 2.94,0.80 2.81,1.29 2.53,1.70 2.25,2.12 1.85,2.42 1.45,2.73 0.98,2.89 0.51,3.05 0.00,3.05 -0.49,3.05 -0.96,2.89 -1.44,2.73 -1.84,2.43 -2.24,2.13 -2.24,2.13 -2.23,2.13 -2.05,1.23 -1.86,0.34 -2.28,0.42 -2.71,0.50 -3.14,0.47 -3.57,0.45 -3.99,0.32 -4.40,0.19 -4.77,-0.02 -5.15,-0.24 -5.45,-0.55 -5.76,-0.86 -5.99,-1.23 -6.21,-1.60 -6.34,-2.01 -6.47,-2.42 -6.50,-2.85 -6.53,-3.29 -6.45,-3.71 -6.37,-4.14 -6.20,-4.54 -6.02,-4.93 -5.75,-5.27 -5.49,-5.62 -5.15,-5.88 -4.81,-6.15 -4.41,-6.33 -4.02,-6.51 -3.60,-6.04 -3.18,-5.57 -2.10,-3.38 -1.02,-1.18 -0.30,-2.03 0.41,-2.88 -0.77,-3.00 -1.96,-3.12 -1.44,-4.14 -0.93,-5.17 -0.18,-4.17 0.56,-3.16 -0.61,-2.94 -1.79,-2.71 -0.82,-2.68 0.14,-2.65 0.45,-2.60 0.77,-2.54 1.06,-2.41 1.36,-2.28 1.61,-2.09 1.86,-1.89 2.06,-1.64 2.26,-1.39 2.40,-1.10 2.53,-0.80 2.59,-0.49 2.65,-0.17 2.63,0.14 2.62,0.46 2.52,0.76 2.43,1.07 2.27,1.35 2.10,1.62 1.88,1.85 1.65,2.08 1.38,2.25 1.10,2.42 0.80,2.51 0.49,2.61 0.17,2.63 -0.14,2.65 -0.14,2.65 L -0.14,2.65 Z"></path></g><g transform="translate(745.5970636312682 630.8269021947717) rotate(0 21.432052612304688 10)"><text x="21.432052612304688" y="0" font-family="Virgil, Segoe UI Emoji" font-size="16px" fill="#1e1e1e" text-anchor="middle" style="white-space: pre;" direction="ltr" dominant-baseline="text-before-edge">Data</text></g><g transform="translate(531.0733438494151 28.388253233935643) rotate(0 35.488075256347656 10)"><text x="35.488075256347656" y="0" font-family="Virgil, Segoe UI Emoji" font-size="16px" fill="#1e1e1e" text-anchor="middle" style="white-space: pre;" direction="ltr" dominant-baseline="text-before-edge">AWS ECS</text></g><g stroke-linecap="round"><g transform="translate(715.9186461040254 300.32175988411774) rotate(0 1.7275148096883868 102.13410613122852)"><path d="M0.4 0.16 C0.6 33.94, 1.61 169.52, 1.97 203.6 M-0.85 -0.8 C-0.33 33.1, 3.87 171.15, 4.3 205.07" stroke="#1e1e1e" stroke-width="1" fill="none"></path></g></g><mask></mask><g stroke-linecap="round"><g transform="translate(719.7466215686143 502.32627649238776) rotate(0 86.49191393024046 0.013899004021141081)"><path d="M-0.73 -0.12 C28.16 0.06, 144.69 1.2, 173.71 1.29 M1.09 -1.23 C29.77 -1.39, 144.15 -0.87, 172.7 -0.38" stroke="#000000" stroke-width="1" fill="none"></path></g></g><mask></mask><g stroke-linecap="round"><g transform="translate(895.6638960143694 505.0898802585477) rotate(0 -1.133044743148048 -94.48646220719661)"><path d="M-0.12 0.87 C-0.16 -30.75, -0.82 -158.02, -0.98 -189.84 M-1.64 0.28 C-1.81 -31.13, -2.08 -156.78, -2.15 -188.31" stroke="#000000" stroke-width="1" fill="none"></path></g></g><mask></mask><g stroke-linecap="round"><g transform="translate(895.0951944129129 315.25017692235076) rotate(0 -12.239834812548565 -11.030337261145199)"><path d="M-0.42 -0.01 C-4.54 -3.83, -20.9 -18.41, -24.82 -22.05 M1.55 -1.07 C-2.76 -4.78, -21.69 -17.4, -26.03 -20.65" stroke="#000000" stroke-width="1" fill="none"></path></g></g><mask></mask><g stroke-linecap="round"><g transform="translate(875.3750220842826 293.4323967764832) rotate(0 -78.41446738053025 3.8383722615303135)"><path d="M-0.5 -0.26 C-26.68 1.01, -131.2 6.27, -157.52 7.61 M1.44 -1.44 C-24.83 0.03, -131.45 7.35, -158.27 9.12" stroke="#000000" stroke-width="1" fill="none"></path></g></g><mask></mask><g transform="translate(724.9043468296843 325.0734600607121) rotate(0 78.98416900634766 70)"><text x="0" y="0" font-family="Virgil, Segoe UI Emoji" font-size="16px" fill="#1e1e1e" text-anchor="start" style="white-space: pre;" direction="ltr" dominant-baseline="text-before-edge">Metadata would be:</text><text x="0" y="20" font-family="Virgil, Segoe UI Emoji" font-size="16px" fill="#1e1e1e" text-anchor="start" style="white-space: pre;" direction="ltr" dominant-baseline="text-before-edge">- Open Graph </text><text x="0" y="40" font-family="Virgil, Segoe UI Emoji" font-size="16px" fill="#1e1e1e" text-anchor="start" style="white-space: pre;" direction="ltr" dominant-baseline="text-before-edge">  / Twitter Card</text><text x="0" y="60" font-family="Virgil, Segoe UI Emoji" font-size="16px" fill="#1e1e1e" text-anchor="start" style="white-space: pre;" direction="ltr" dominant-baseline="text-before-edge">- Extension:</text><text x="0" y="80" font-family="Virgil, Segoe UI Emoji" font-size="16px" fill="#1e1e1e" text-anchor="start" style="white-space: pre;" direction="ltr" dominant-baseline="text-before-edge">    - Location</text><text x="0" y="100" font-family="Virgil, Segoe UI Emoji" font-size="16px" fill="#1e1e1e" text-anchor="start" style="white-space: pre;" direction="ltr" dominant-baseline="text-before-edge">    - Users</text><text x="0" y="120" font-family="Virgil, Segoe UI Emoji" font-size="16px" fill="#1e1e1e" text-anchor="start" style="white-space: pre;" direction="ltr" dominant-baseline="text-before-edge">    - Wearables</text></g><g stroke-linecap="round"><g transform="translate(789.2836914372447 239.76382320442053) rotate(0 -0.07300034617105666 29.975664388743603)"><path d="M-1 0.42 C-0.69 10.23, 0.52 49.47, 0.86 59.53" stroke="#1e1e1e" stroke-width="1.5" fill="none" stroke-dasharray="1.5 7"></path></g></g><mask></mask></svg>